<?xml version="1.0" encoding="UTF-8" standalone="no"?>
<svg
   width="145"
   height="100"
   viewBox="0 0 145 100"
   fill="none"
   version="1.1"
   id="svg19786"
   sodipodi:docname="cross.svg"
   inkscape:version="1.2.2 (732a01da63, 2022-12-09)"
   inkscape:export-filename="cross.svg"
   inkscape:export-xdpi="96"
   inkscape:export-ydpi="96"
   xmlns:inkscape="http://www.inkscape.org/namespaces/inkscape"
   xmlns:sodipodi="http://sodipodi.sourceforge.net/DTD/sodipodi-0.dtd"
   xmlns="http://www.w3.org/2000/svg"
   xmlns:svg="http://www.w3.org/2000/svg">
  <sodipodi:namedview
     id="namedview19788"
     pagecolor="#ffffff"
     bordercolor="#000000"
     borderopacity="0.25"
     inkscape:showpageshadow="2"
     inkscape:pageopacity="0.0"
     inkscape:pagecheckerboard="0"
     inkscape:deskcolor="#d1d1d1"
     showgrid="false"
     inkscape:zoom="5.5507882"
     inkscape:cx="75.484775"
     inkscape:cy="49.452436"
     inkscape:window-width="1920"
     inkscape:window-height="1001"
     inkscape:window-x="-9"
     inkscape:window-y="-9"
     inkscape:window-maximized="1"
     inkscape:current-layer="svg19786" />
  <path
     id="path23338"
     clip-path="url(#clipPath20697)"
     mask="url(#mask20691)"
     style="fill:#f5ebb3;fill-opacity:1"
     d="m 72.558594,0 c -9.211391,6.0710722 -1.34961,12.210938 -1.34961,12.210938 -7.048493,-4.535926 -9.211337,2.373756 -5.93164,2.722656 3.279696,0.348199 1.535156,-3.070313 1.535156,-3.070313 2.583297,-0.1192 4.087198,2.81639 4.904297,5.367188 -1.106799,0.358299 -1.914063,1.400748 -1.914063,2.623047 V 30.111328 H 54.363281 c -1.074199,0 -2.007238,0.623892 -2.460937,1.525391 C 49.676646,30.76192 47.5224,29.340292 47.625,27.121094 c 0,0 3.419212,1.74454 3.070312,-1.535156 -0.348899,-3.279697 -7.256698,-1.116053 -2.720703,5.93164 0,0 -6.141896,-7.862481 -12.21289,1.34961 6.070994,9.21139 12.21289,1.351562 12.21289,1.351562 -4.535995,7.047693 2.371804,9.211337 2.720703,5.931641 0.3489,-3.279697 -3.070312,-1.535157 -3.070312,-1.535157 -0.1026,-2.219197 2.051646,-3.642779 4.277344,-4.517578 0.453699,0.901499 1.386738,1.527344 2.460937,1.527344 H 69.802734 V 81.75 c 0,1.027299 0.569504,1.928444 1.408204,2.402344 -0.8828,2.117998 -2.27604,4.082675 -4.398438,3.984375 0,0 1.74454,-3.419212 -1.535156,-3.070313 -0.729783,0.07748 -1.176079,0.486818 -1.373047,1.015625 -0.0066,-0.01634 -0.01305,-0.03239 -0.01953,-0.04883 -0.3605,-0.691299 -0.563935,-1.403919 -0.615235,-2.074219 -0.0282,-0.662499 0.175366,-1.270387 0.634766,-1.617187 0.963699,-0.743299 2.309547,-0.276659 2.873047,0.494141 0.175517,0.19338 0.304586,0.407279 0.382812,0.621093 -0.155217,-0.205271 -0.402368,-0.33789 -0.679687,-0.33789 -0.4696,0 -0.84961,0.380809 -0.84961,0.849609 0,0.385894 0.255998,0.711975 0.607422,0.816406 0.124972,0.06759 0.29827,0.113852 0.513672,0.08203 0.3121,-0.0686 0.6568,-0.366279 0.75,-0.830079 0.104,-0.460899 -0.05722,-1.003725 -0.386719,-1.453125 -0.298299,-0.477499 -0.806597,-0.906987 -1.466796,-1.117187 -0.2355,-0.0867 -0.49522,-0.13086 -0.761719,-0.130859 -0.4717,0 -0.965738,0.138587 -1.398438,0.429687 -0.708699,0.4623 -1.048637,1.382951 -1.023437,2.21875 0.034,0.835799 0.272738,1.661026 0.648437,2.390625 0.3091,0.776599 0.766054,1.446216 1.189453,2.103516 0.2311,0.313599 0.490816,0.598972 0.728516,0.888672 0.1221,0.141599 0.237128,0.288275 0.361328,0.421874 0.1344,0.125 0.267638,0.247741 0.398438,0.369141 0.265099,0.2406 0.516937,0.480772 0.773437,0.701172 0.2759,0.1957 0.544135,0.386113 0.802735,0.570313 0.308702,0.242349 0.637967,0.417633 0.955078,0.580078 -0.06128,0.214572 -0.116908,0.430555 -0.154297,0.65625 -0.466463,-0.245294 -0.925831,-0.537516 -1.375,-0.875 -0.3742,-0.273 -0.736632,-0.584388 -1.082031,-0.929688 -0.3532,-0.3345 -0.711926,-0.674785 -1.078126,-1.021484 -0.382899,-0.3273 -0.685309,-0.756779 -1.037109,-1.142578 -0.3388,-0.3995 -0.699256,-0.788791 -1.035156,-1.212891 -0.167325,-0.225888 -0.343238,-0.453512 -0.515625,-0.679687 -0.154435,-0.245467 -0.303824,-0.483286 -0.462891,-0.736329 l -0.236328,-0.371093 -0.191406,-0.404297 c -0.1286,-0.2702 -0.259125,-0.54246 -0.390625,-0.81836 -0.1242,-0.279599 -0.285066,-0.54615 -0.384766,-0.84375 -0.099,-0.295499 -0.199581,-0.595737 -0.300781,-0.898437 -0.1018,-0.3027 -0.205747,-0.608216 -0.310547,-0.916016 -0.0628,-0.318499 -0.127106,-0.639291 -0.191406,-0.96289 -0.3215,-1.285199 -0.402341,-2.662961 -0.244141,-4.00586 0.1965,-1.329998 0.715379,-2.578807 1.580078,-3.441406 0.8517,-0.881299 1.948205,-1.484194 3.033203,-1.683594 1.083599,-0.2001 2.150801,-0.05847 2.9375,0.394532 0.3908,0.218899 0.699373,0.498809 0.888672,0.787109 0.2008,0.2925 0.237432,0.547097 0.207032,0.841797 -0.0585,0.577199 -0.465254,1.003878 -0.876954,1.142578 -0.394499,0.1466 -0.905034,0.06063 -1.240234,-0.07227 -0.3547,-0.1337 -0.545744,-0.293669 -0.714844,-0.417968 -0.159599,-0.1278 -0.287015,-0.273529 -0.478515,-0.298829 -0.1806,-0.0267 -0.398382,0.12327 -0.425781,0.542969 -0.0231,0.4081 0.248213,1.015394 0.820312,1.433594 0.562799,0.412499 1.416707,0.7622 2.503906,0.5 1.050399,-0.255 2.067847,-1.282714 2.185547,-2.632813 0.0434,-0.333799 -0.0024,-0.68235 -0.07031,-1.03125 -0.1098,-0.345299 -0.249879,-0.686744 -0.455079,-0.964843 -0.400199,-0.5729 -0.953134,-1.002541 -1.552734,-1.306641 -0.758499,-0.3851 -1.619095,-0.566406 -2.496094,-0.566406 -0.515099,0 -1.036875,0.06299 -1.546875,0.183593 -1.384798,0.3273 -2.682019,1.121236 -3.699218,2.240235 -1.049599,1.126899 -1.625463,2.640989 -1.851563,4.179687 -0.1835,1.547399 -0.06115,3.056242 0.314453,4.431641 0.07535,0.326496 0.150576,0.648618 0.22461,0.96875 -0.759792,-1.043922 -1.556876,-2.098206 -2.431641,-3.138672 -0.4306,-0.478299 -0.863682,-0.960366 -1.300781,-1.447265 -0.45,-0.4753 -0.973091,-0.89451 -1.462891,-1.34961 -0.961499,-0.931199 -2.145895,-1.676466 -3.371094,-2.322266 -1.231698,-0.651599 -2.562917,-1.094578 -3.916015,-1.330078 -0.3409,-0.0441 -0.675632,-0.132172 -1.019531,-0.138672 -0.3438,-0.013 -0.684391,-0.02721 -1.025391,-0.04102 h -0.02344 c -0.332999,0 -0.665994,0.05297 -0.996093,0.07617 l -0.50586,0.04883 -0.503906,0.103515 c -0.0276,0.0064 -0.05452,0.01483 -0.08203,0.02148 -1.275293,0.15371 -2.749937,0.565579 -4.283203,1.347656 -2.599898,1.243999 -5.037831,3.675971 -7.798828,6.105469 -1.390599,1.207799 -2.913971,2.40077 -4.667969,3.292969 -1.747399,0.896499 -3.763921,1.418915 -5.824219,1.416015 -2.065398,-0.0144 -4.026245,-0.727735 -5.527344,-1.927734 -1.477998,-1.222299 -2.482581,-2.887392 -2.738281,-4.587891 -0.2629,-1.693998 0.260304,-3.399823 1.283203,-4.419922 1.022899,-1.031599 2.523882,-1.386065 3.613281,-1.009765 0.5404,0.1806 1.027076,0.507975 1.359375,0.921875 0.3301,0.410399 0.55066,0.863288 0.63086,1.304687 0.1488,0.886399 -0.25871,1.629557 -0.72461,2.097656 -0.476099,0.4718 -0.975625,0.659091 -1.328125,0.775391 -0.351099,0.0737 -0.586947,0.135319 -0.623047,0.261719 -0.0347,0.1221 0.163767,0.265534 0.634766,0.365234 0.458,0.0376 1.211254,-0.05609 1.939453,-0.621094 0.3504,-0.287499 0.715032,-0.664194 0.957031,-1.183593 0.0585,-0.1308 0.118288,-0.263091 0.179688,-0.400391 0.0325,-0.1488 0.06641,-0.299778 0.09961,-0.455078 0.0405,-0.156 0.05792,-0.314763 0.04492,-0.476562 -0.0036,-0.1618 -0.0025,-0.329994 -0.01758,-0.496094 -0.1951,-1.319899 -1.160001,-2.685491 -2.75,-3.212891 -0.410299,-0.1372 -0.843903,-0.203125 -1.283203,-0.203125 -1.255499,0 -2.55812,0.543751 -3.511719,1.53125 -1.298898,1.348699 -1.8272,3.400177 -1.49414,5.359375 0.156742,0.915977 0.502293,1.80051 0.984375,2.621094 -0.0013,-7.55e-4 -0.0026,-0.0012 -0.0039,-0.002 -1.1500285,-0.6025 -2.6119132,-1.185547 -4.3261715,-1.435547 -0.5764794,-0.0881 -1.1758225,-0.125 -1.7949219,-0.125 -0.3005197,0 -0.6048728,0.0088 -0.9140625,0.02539 -0.937679,0.0758 -1.9613252,0.296188 -2.8339843,0.929687 -0.86399019,0.661699 -1.30982547,1.751542 -1.25781255,2.744141 0.0288961,0.996199 0.476412,1.954138 1.22265625,2.523437 0.7469593,0.575 1.679722,0.694541 2.4570313,0.556641 0.7772992,-0.146 1.478966,-0.489973 1.9160156,-1.013672 0.934069,-1.008499 0.8691989,-2.343638 0.3808594,-2.898438 -0.047033,-0.0596 -0.095831,-0.112096 -0.1425842,-0.16009 C 5.66432,81.879009 5.4016555,81.718395 5.0996094,81.681641 c -0.010489,-0.0027 -0.033218,-0.0075 -0.037109,-0.0098 0.00249,0.0017 0.018161,0.0057 0.023437,0.0078 -0.03909,-0.0043 -0.078924,-0.0059 -0.1191406,-0.0059 -0.6017694,0 -1.0898438,0.487344 -1.0898438,1.089844 0,0.600999 0.4880744,1.087891 1.0898438,1.08789 0.6010294,0 1.0878906,-0.486891 1.0878906,-1.08789 0,-0.05648 -0.00346,-0.111858 -0.011719,-0.166016 0.237699,0.619921 0.094886,1.626557 -0.6699219,2.351563 -0.4139396,0.444299 -1.0649438,0.713994 -1.7519531,0.808593 -0.6906194,0.0874 -1.4759106,-0.06043 -2.0625,-0.548828 C 0.96984034,84.730085 0.61804399,83.92299 0.609375,83.087891 c -0.019505,-0.8438 0.33918569,-1.682257 1.03125,-2.222657 0.7180593,-0.522999 1.6264834,-0.741759 2.5078125,-0.818359 0.8907191,-0.052 1.7608789,-0.04925 2.5800781,0.06055 1.6405784,0.2073 3.0562805,0.721507 4.1933594,1.253906 0.261723,0.134855 0.506499,0.269783 0.736328,0.404297 0.472612,0.635406 1.032371,1.217621 1.662109,1.722656 1.668699,1.303899 3.851421,2.063872 6.074219,2.076172 2.224998,0.0043 4.366974,-0.56981 6.201172,-1.537109 1.842798,-0.963699 3.391992,-2.22777 4.775391,-3.480469 2.746597,-2.523297 5.04414,-4.965326 7.523437,-6.265625 0.615949,-0.343956 1.224162,-0.624818 1.814453,-0.851562 -1.606988,0.870704 -2.919775,2.191517 -3.707031,3.779296 -0.542499,1.168099 -0.833309,2.436699 -0.662109,3.716797 0.1726,1.256899 0.696694,2.39647 1.433594,3.292969 0.734599,0.901499 1.652882,1.606816 2.675781,2.041016 1.015699,0.442799 2.165026,0.559384 3.203125,0.333984 2.065298,-0.4392 3.621741,-2.082646 3.80664,-3.902344 0.1994,-1.768398 -0.819695,-3.300672 -2.058593,-3.763672 -1.219499,-0.454399 -2.223645,-0.09096 -2.714844,0.302735 -0.1235,0.1077 -0.224035,0.206022 -0.302735,0.294922 -0.0708,0.1018 -0.114231,0.199797 -0.144531,0.279297 -0.0585,0.161099 -0.04837,0.267278 0.01953,0.330078 0.0737,0.0636 0.191379,0.07629 0.330079,0.05469 0.0686,-0.0102 0.142703,-0.02844 0.220703,-0.05664 0.0889,-0.0166 0.189362,-0.03189 0.289062,-0.05859 0.3966,-0.0788 1.038898,-0.136928 1.654297,0.201172 0.2876,0.162499 0.5586,0.418828 0.75,0.798828 0.1893,0.374199 0.288109,0.866135 0.224609,1.365234 -0.0795,0.965899 -1.050163,2.095344 -2.414062,2.402344 -0.666799,0.156 -1.430282,0.117459 -2.175781,-0.181641 -0.7441,-0.292499 -1.465582,-0.806675 -2.050781,-1.484375 -0.5938,-0.670299 -1.012669,-1.532213 -1.167969,-2.445312 -0.1654,-0.897899 0.03329,-1.933889 0.433593,-2.867188 0.8538,-1.880498 2.759015,-3.468638 5.007813,-4.023437 l 0.423828,-0.09375 0.441406,-0.04687 c 0.2954,-0.0232 0.588873,-0.07858 0.888672,-0.08008 l 0.904297,0.02344 c 0.3027,-7e-4 0.60215,0.07984 0.90625,0.115234 1.209299,0.1986 2.422689,0.588354 3.554688,1.189454 1.129798,0.598099 2.217513,1.266585 3.132812,2.146484 0.466,0.4277 0.960332,0.814372 1.394531,1.263672 0.4247,0.462299 0.848026,0.919347 1.265625,1.373047 1.621799,1.876098 3.029136,3.835114 4.427735,5.695312 0.680499,0.936199 1.425729,1.809129 2.111328,2.673828 0.3568,0.4241 0.741616,0.817298 1.103515,1.216797 0.3771,0.3857 0.698829,0.808472 1.111329,1.138672 0.392999,0.3467 0.780956,0.687085 1.160156,1.021484 0.3721,0.3403 0.761722,0.650729 1.169922,0.923829 0.561375,0.387028 1.141875,0.718493 1.738281,0.978515 -0.06656,1.988922 0.957555,4.309491 4.464844,6.621098 3.595449,-2.369738 4.575027,-4.746022 4.451172,-6.767582 0.463405,-0.229645 0.916713,-0.499305 1.357422,-0.802734 0.409599,-0.2752 0.799775,-0.585235 1.171874,-0.927735 0.3792,-0.3344 0.766457,-0.675385 1.160157,-1.021484 0.413199,-0.3308 0.735481,-0.754226 1.113281,-1.140625 0.3619,-0.4003 0.750522,-0.792698 1.107422,-1.216797 0.685599,-0.864699 1.429676,-1.740735 2.109375,-2.677735 1.400098,-1.860898 2.808136,-3.817508 4.427734,-5.691406 0.4176,-0.453699 0.838973,-0.910294 1.263672,-1.371094 0.4335,-0.450099 0.928079,-0.834719 1.392578,-1.261718 0.913799,-0.878399 1.998101,-1.545879 3.125,-2.142578 1.129099,-0.6003 2.33867,-0.988801 3.542969,-1.1875 0.3034,-0.0354 0.602397,-0.113982 0.904297,-0.113282 l 0.900394,-0.02539 c 0.298,7e-4 0.59076,0.05572 0.88476,0.07813 l 0.43555,0.04687 0.42187,0.09375 c 2.236,0.547499 4.13915,2.121583 4.99415,3.988281 0.405,0.926899 0.60026,1.954057 0.44726,2.847656 -0.151,0.906599 -0.56048,1.768807 -1.14648,2.441407 -1.155,1.368198 -2.86722,2.037318 -4.19922,1.699218 -1.361,-0.292499 -2.35072,-1.401841 -2.449222,-2.36914 -0.0708,-0.4992 0.02158,-0.993748 0.205082,-1.373047 0.184,-0.3836 0.45333,-0.652013 0.73633,-0.820313 0.293,-0.185 0.62711,-0.226684 0.9121,-0.271484 0.288,-0.0087 0.54005,0.01404 0.74805,0.05664 0.1,0.0274 0.19611,0.04685 0.28711,0.06055 0.082,0.0253 0.15461,0.0503 0.22461,0.0625 0.137,0.026 0.25017,0.02054 0.32617,-0.03516 0.077,-0.0614 0.10078,-0.164066 0.0508,-0.322265 -0.025,-0.0802 -0.0689,-0.171144 -0.13086,-0.277344 -0.072,-0.0932 -0.17006,-0.188475 -0.28906,-0.296875 -0.471,-0.3959 -1.46355,-0.794275 -2.68554,-0.359375 -1.248805,0.424699 -2.305459,1.951111 -2.126959,3.724609 0.1509,1.826198 1.699974,3.500472 3.763669,3.951172 1.037,0.2334 2.19285,0.127006 3.21485,-0.308594 1.026,-0.429899 1.94759,-1.132404 2.68359,-2.033203 0.742,-0.892899 1.27036,-2.029657 1.44336,-3.285156 0.182,-1.279399 -0.11734,-2.548698 -0.65234,-3.716797 -0.79566,-1.604319 -2.12808,-2.933862 -3.75782,-3.802734 0.6068,0.229829 1.23251,0.515071 1.86719,0.86914 2.475,1.298199 4.77254,3.736922 7.51953,6.261719 1.384,1.254799 2.9343,2.520429 4.7793,3.486328 1.837,0.967299 3.98289,1.544163 6.21289,1.539063 2.228,-0.0115 4.41394,-0.77398 6.08594,-2.080079 0.64314,-0.516147 1.21073,-1.11433 1.68945,-1.765624 0.2186,-0.127121 0.44828,-0.253546 0.69531,-0.38086 1.137,-0.532399 2.55432,-1.046606 4.19532,-1.253906 0.819,-0.1098 1.68908,-0.112547 2.58007,-0.06055 0.881,0.0766 1.78982,0.29536 2.50782,0.818359 0.691,0.5404 1.05125,1.378857 1.03125,2.222657 -0.008,0.835799 -0.36022,1.643447 -0.94922,2.123047 -0.586,0.487699 -1.3725,0.634274 -2.0625,0.546874 -0.688,-0.0946 -1.33896,-0.364294 -1.75196,-0.808593 -0.74275,-0.703535 -0.89847,-1.671643 -0.68945,-2.294922 -0.002,0.02606 -0.004,0.0516 -0.004,0.07813 0,0.602499 0.48684,1.089844 1.08984,1.089844 0.601,0 1.08789,-0.487345 1.08789,-1.089844 0,-0.6003 -0.48689,-1.087891 -1.08789,-1.087891 -0.4199,0 -0.78272,0.237458 -0.96484,0.583985 -0.0128,0.01537 -0.0262,0.0267 -0.0391,0.04297 -0.488,0.5555 -0.55509,1.889939 0.37891,2.898438 0.438,0.523699 1.13997,0.867672 1.91797,1.013672 0.776,0.1379 1.70903,0.01836 2.45703,-0.556641 0.746,-0.567799 1.19266,-1.527238 1.22266,-2.523437 0.052,-0.992599 -0.39482,-2.082442 -1.25782,-2.744141 -0.873,-0.633499 -1.89598,-0.853888 -2.83398,-0.929687 -0.309,-0.0166 -0.61406,-0.02539 -0.91406,-0.02539 -0.619,0 -1.21893,0.0369 -1.79493,0.125 -1.70185,0.248084 -3.15195,0.823645 -4.29882,1.421875 0.4718,-0.811569 0.8098,-1.686287 0.96484,-2.589844 0.338,-1.959898 -0.19142,-4.007076 -1.48242,-5.359375 -0.958,-0.999099 -2.26825,-1.550781 -3.53125,-1.550781 -0.427,0 -0.84705,0.06406 -1.24805,0.193359 -1.594,0.5115 -2.56739,1.867789 -2.77539,3.179688 -0.072,0.654499 -6.1e-4,1.324525 0.27539,1.828125 0.232,0.525099 0.59241,0.907666 0.94141,1.197265 0.722,0.5729 1.4724,0.69315 1.9414,0.65625 0.478,-0.0809 0.69193,-0.23185 0.66993,-0.34375 -0.026,-0.131499 -0.25747,-0.20889 -0.60547,-0.27539 -0.347,-0.1257 -0.84522,-0.293619 -1.32422,-0.761719 -0.474,-0.4616 -0.87791,-1.202992 -0.75391,-2.087891 0.086,-0.440699 0.28528,-0.897653 0.61328,-1.314453 0.336,-0.410999 0.81152,-0.7497 1.35352,-0.9375 1.085,-0.391499 2.59586,-0.05113 3.63086,0.980469 1.035,1.014999 1.56554,2.728942 1.31054,4.431641 -0.25199,1.709198 -1.25628,3.382529 -2.73828,4.611328 -1.50499,1.206399 -3.47397,1.9231 -5.54296,1.9375 -2.065,0.0036 -4.0879,-0.52007 -5.8379,-1.417969 -1.75699,-0.894399 -3.28183,-2.088276 -4.67382,-3.296875 -2.763,-2.429398 -5.19793,-4.859764 -7.79493,-6.101562 -1.55563,-0.793231 -3.05037,-1.208271 -4.33593,-1.355469 -0.006,-0.0014 -0.0117,-0.0025 -0.0176,-0.0039 l -0.50195,-0.101562 -0.50586,-0.04883 c -0.331,-0.0231 -0.66505,-0.07422 -0.99805,-0.07422 h -0.0195 c -0.341,0.0138 -0.681741,0.02732 -1.02344,0.04102 -0.3438,0.0058 -0.677379,0.09457 -1.017579,0.138672 -1.350198,0.235499 -2.676751,0.676772 -3.90625,1.326171 -1.222298,0.6451 -2.403882,1.387961 -3.363281,2.31836 -0.489699,0.453699 -1.012238,0.873057 -1.460937,1.347656 -0.437,0.4862 -0.869729,0.96656 -1.298828,1.44336 -0.871694,1.037016 -1.665866,2.089721 -2.423828,3.130859 0.07435,-0.322676 0.14984,-0.64792 0.224609,-0.976563 0.376399,-1.377598 0.500606,-2.888661 0.316406,-4.443359 -0.2268,-1.545198 -0.810535,-3.064814 -1.865234,-4.195313 -1.020699,-1.122598 -2.321286,-1.911534 -3.708985,-2.240234 -0.508599,-0.12 -1.030622,-0.181641 -1.544922,-0.18164 -0.879199,0 -1.7407,0.181859 -2.5,0.568359 -0.600299,0.302 -1.151587,0.728275 -1.554687,1.296875 -0.05609,0.09107 -0.115334,0.17907 -0.169922,0.269531 V 35.625 h 15.439453 c 1.121799,0 2.092385,-0.681138 2.521485,-1.648438 2.333397,0.8633 4.70135,2.313275 4.59375,4.638672 0,0 -3.419313,-1.74454 -3.070313,1.535157 0.3489,3.279696 7.257003,1.116052 2.720703,-5.931641 0,0 6.1419,7.859828 12.21289,-1.351562 -6.07099,-9.212091 -12.21289,-1.34961 -12.21289,-1.34961 4.5363,-7.047693 -2.371803,-9.211337 -2.720703,-5.93164 -0.349,3.279696 3.070313,1.535156 3.070313,1.535156 0.1076,2.325397 -2.260353,3.774119 -4.59375,4.636718 -0.4291,-0.967299 -1.399686,-1.646484 -2.521485,-1.646484 H 75.314453 V 19.853516 c 0,-1.222299 -0.80541,-2.264748 -1.912109,-2.623047 0.817099,-2.550798 2.319046,-5.486388 4.902344,-5.367188 0,0 -1.744541,3.418512 1.535156,3.070313 3.280396,-0.3489 1.118005,-7.258582 -5.929688,-2.722656 0,0 7.859729,-6.1398658 -1.351562,-12.210938 z M 40.078125,62.048828 c 0.1069,1.346599 0.361126,2.665004 0.890625,3.908203 0.530999,1.241799 1.355245,2.380992 2.464844,3.150391 1.089399,0.755599 2.392635,1.126319 3.677734,1.449219 1.285199,0.323699 2.561611,0.534922 3.72461,1.169921 1.163098,0.635 2.226594,2.151021 2.496093,3.449219 0.1676,-2.068998 -0.76077,-4.123292 -2.167969,-5.65039 -1.406498,-1.526499 -3.253905,-2.579751 -5.158203,-3.40625 -1.125498,-0.4883 -2.285057,-0.908085 -3.347656,-1.521485 -1.061899,-0.613299 -2.040479,-1.447129 -2.580078,-2.548828 z m 64.544925,0 c -0.54,1.101699 -1.51808,1.935529 -2.58008,2.548828 -1.062,0.6134 -2.222859,1.033185 -3.347658,1.521485 -1.904198,0.826499 -3.751704,1.879751 -5.158203,3.40625 -1.407298,1.527098 -2.335568,3.581392 -2.167968,5.65039 0.269499,-1.298198 1.332295,-2.814219 2.496093,-3.449219 1.163099,-0.634999 2.438711,-0.846222 3.72461,-1.169921 1.285198,-0.3229 2.587736,-0.69362 3.677736,-1.449219 1.109,-0.769399 1.93384,-1.908592 2.46484,-3.150391 0.53,-1.243199 0.78363,-2.561604 0.89063,-3.908203 z m -66.578128,7.177734 c -1.876098,0 -3.732943,0.496957 -5.494141,1.160157 -1.147899,0.431199 -2.273092,0.937228 -3.46289,1.236328 -1.189799,0.2991 -2.472555,0.380243 -3.626953,-0.03516 1.013498,0.892899 2.115829,1.6645 3.361328,2.1875 1.245398,0.523099 2.627438,0.764521 3.960937,0.544921 1.307599,-0.215299 2.501792,-0.857131 3.650391,-1.519531 1.147199,-0.660999 2.211782,-1.397953 3.488281,-1.751953 1.277899,-0.3525 3.095507,-0.0019 4.191406,0.742188 -1.319098,-1.602299 -3.41373,-2.431829 -5.486328,-2.548828 -0.1936,-0.0109 -0.388431,-0.01563 -0.582031,-0.01563 z m 68.611328,0 c -0.194,0 -0.38803,0.0047 -0.58203,0.01563 -2.072,0.116999 -4.16733,0.946529 -5.48633,2.548828 1.096,-0.7441 2.91341,-1.094688 4.19141,-0.742188 1.277,0.354 2.34028,1.090954 3.48828,1.751953 1.148,0.6624 2.34339,1.304232 3.65039,1.519531 1.334,0.2196 2.71689,-0.02182 3.96289,-0.544921 1.245,-0.523 2.34438,-1.294601 3.35937,-2.1875 -1.15499,0.415399 -2.43695,0.334256 -3.62695,0.03516 -1.19,-0.2991 -2.31489,-0.805129 -3.46289,-1.236328 -1.761,-0.6632 -3.61814,-1.160157 -5.49414,-1.160157 z m -26.712891,2.388672 c 0.266405,0.0063 0.537673,0.03468 0.810547,0.08398 1.093699,0.1943 2.196942,0.798694 3.056641,1.683593 0.872599,0.8676 1.39575,2.125939 1.59375,3.460938 0.1575,1.348699 0.07876,2.728326 -0.244141,4.015625 -0.0643,0.3251 -0.128506,0.647497 -0.191406,0.966797 -0.1047,0.3077 -0.21,0.613316 -0.3125,0.916016 -0.1019,0.304099 -0.201781,0.605344 -0.300781,0.902343 -0.1004,0.2976 -0.261719,0.566104 -0.386719,0.845703 -0.1314,0.2774 -0.262025,0.550213 -0.390625,0.820313 l -0.191406,0.404297 -0.236328,0.371094 c -0.158977,0.25217 -0.309028,0.489647 -0.462891,0.734374 -0.173975,0.228041 -0.350463,0.45798 -0.519531,0.685547 -0.3359,0.4255 -0.696357,0.816598 -1.035157,1.216797 -0.352499,0.3858 -0.655462,0.814679 -1.039062,1.142578 -0.3663,0.3475 -0.727578,0.688238 -1.080078,1.023438 -0.3475,0.3453 -0.708385,0.659794 -1.083984,0.933594 -0.328832,0.246612 -0.663269,0.467923 -1.001954,0.667968 -0.05812,-0.294894 -0.137822,-0.58087 -0.234375,-0.855468 0.129766,-0.08048 0.257838,-0.1672 0.382813,-0.265625 0.2601,-0.1835 0.527988,-0.375213 0.804687,-0.570313 0.2558,-0.2196 0.509038,-0.459872 0.773438,-0.701172 0.1315,-0.122 0.263338,-0.24414 0.398437,-0.36914 0.1235,-0.1351 0.239229,-0.278876 0.361328,-0.421875 0.06947,-0.08495 0.142718,-0.170929 0.214844,-0.25586 1.269543,-0.524226 1.835427,-1.711416 1.671875,-2.662109 0.01024,-0.02478 0.02131,-0.04922 0.03125,-0.07422 0.3757,-0.730399 0.614438,-1.554126 0.648438,-2.390625 0.0252,-0.835099 -0.316138,-1.754397 -1.023438,-2.216797 -0.432699,-0.291099 -0.927438,-0.43164 -1.398437,-0.43164 -0.2666,0 -0.525519,0.04426 -0.761719,0.130859 -0.660999,0.2095 -1.167797,0.640941 -1.466797,1.119141 -0.3287,0.448599 -0.490019,0.989572 -0.386719,1.451171 0.094,0.4631 0.437901,0.760679 0.75,0.830079 0.213891,0.03113 0.386927,-0.01492 0.511719,-0.08203 0.352339,-0.103653 0.609375,-0.42846 0.609375,-0.814453 0,-0.470199 -0.38011,-0.851562 -0.849609,-0.851562 -0.277271,0 -0.524466,0.132391 -0.679688,0.33789 0.07816,-0.213818 0.209195,-0.427767 0.384766,-0.621093 0.564199,-0.7708 1.906841,-1.236287 2.86914,-0.492188 0.4601,0.3453 0.662966,0.952835 0.634766,1.615235 -0.03867,0.504834 -0.161976,1.034045 -0.375,1.560546 -0.239484,-0.206439 -0.557166,-0.349926 -0.958984,-0.392578 -3.279697,-0.348899 -1.535156,3.070313 -1.535156,3.070313 -2.121698,0.0983 -3.515639,-1.866377 -4.398438,-3.984375 0.837999,-0.4739 1.408203,-1.375045 1.408203,-2.402344 v -6.621094 c 0.405499,0.730215 1.084661,1.255304 1.78125,1.431641 1.085799,0.2759 1.942766,-0.0644 2.509766,-0.466797 0.580899,-0.4074 0.861968,-1.013529 0.855469,-1.423828 -0.0123,-0.4255 -0.220126,-0.592319 -0.390626,-0.574219 -0.203699,0.0188 -0.340606,0.167822 -0.503906,0.294922 -0.1704,0.1257 -0.364691,0.278263 -0.71289,0.414063 -0.3309,0.133699 -0.840282,0.226384 -1.238282,0.08398 -0.410299,-0.1343 -0.824531,-0.546854 -0.894531,-1.126953 -0.0405,-0.2969 0.0025,-0.55561 0.195313,-0.84961 0.185699,-0.292499 0.491313,-0.574928 0.882812,-0.798828 0.5922,-0.344099 1.345318,-0.516872 2.144531,-0.498047 z M 3.8027344,73.412109 c 0,0 1.2416968,2.595583 0.5546875,4.113282 1.6781383,-0.1286 3.3608695,0.355479 4.7363281,1.330078 l 0.00195,-0.002 C 8.197764,77.428217 7.8057708,75.71878 8.0253906,74.050781 6.1493125,74.755081 3.8027344,73.412109 3.8027344,73.412109 Z m 137.0957056,0 c 0,0 -2.34666,1.342972 -4.22266,0.638672 0.22,1.667999 -0.17231,3.377436 -1.07031,4.802735 l 0.002,0.002 c 1.374,-0.974599 3.05833,-1.458678 4.73633,-1.330078 -0.687,-1.517699 0.55469,-4.113282 0.55469,-4.113282 z M 30.048828,82.878906 c -0.814899,0 -1.474609,0.659257 -1.474609,1.472656 0,0.8156 0.65971,1.476563 1.474609,1.476563 0.814199,0 1.47461,-0.660963 1.47461,-1.476563 0,-0.813399 -0.660411,-1.472656 -1.47461,-1.472656 z m 84.601562,0 c -0.814,0 -1.47266,0.659257 -1.47266,1.472656 0,0.8156 0.65866,1.476563 1.47266,1.476563 0.815,0 1.47656,-0.660963 1.47656,-1.476563 0,-0.813399 -0.66156,-1.472656 -1.47656,-1.472656 z m -88.980468,2.664063 c -0.814099,0 -1.47461,0.65971 -1.47461,1.474609 0,0.814099 0.660511,1.47461 1.47461,1.47461 0.814199,0 1.474609,-0.660511 1.474609,-1.47461 0,-0.814899 -0.66041,-1.474609 -1.474609,-1.474609 z m 93.361328,0 c -0.815,0 -1.47461,0.65971 -1.47461,1.474609 0,0.814099 0.65961,1.47461 1.47461,1.47461 0.814,0 1.47656,-0.660511 1.47656,-1.47461 0,-0.814899 -0.66256,-1.474609 -1.47656,-1.474609 z m -98.960938,0.8125 c -0.814199,0 -1.474609,0.65971 -1.474609,1.474609 0,0.814099 0.66041,1.47461 1.474609,1.47461 0.8141,0 1.476563,-0.660511 1.476563,-1.47461 0,-0.814899 -0.662463,-1.474609 -1.476563,-1.474609 z m 104.560548,0 c -0.814,0 -1.47656,0.65971 -1.47656,1.474609 0,0.814099 0.66256,1.47461 1.47656,1.47461 0.814,0 1.47461,-0.660511 1.47461,-1.47461 0,-0.814899 -0.66061,-1.474609 -1.47461,-1.474609 z m -53.421876,1.43164 c 0,0 -1.824888,1.439404 -2.683593,3.603516 -0.252968,-0.152203 -0.509775,-0.319829 -0.751953,-0.53125 -0.237,-0.1835 -0.481576,-0.37256 -0.734376,-0.568359 -0.228299,-0.2225 -0.462625,-0.450747 -0.703124,-0.685547 -0.1207,-0.1177 -0.243588,-0.237522 -0.367188,-0.357422 -0.01485,-0.01713 -0.02836,-0.0353 -0.04297,-0.05273 1.238917,0.320125 3.00073,0.06044 5.283203,-1.408203 z m 2.701172,0 c 1.800793,1.158837 3.277934,1.564458 4.431641,1.529297 -0.0777,0.07592 -0.15651,0.151988 -0.232422,0.226563 -0.2412,0.2355 -0.474825,0.4658 -0.703125,0.6875 -0.2521,0.1965 -0.498075,0.384859 -0.734375,0.568359 -0.08136,0.07103 -0.165844,0.135233 -0.25,0.197266 -0.908497,-1.942027 -2.511719,-3.208985 -2.511719,-3.208985 z" />
  <defs
     id="defs19784">
    <mask
       maskUnits="userSpaceOnUse"
       id="mask20691">
      <g
         id="g20695">
        <path
           d="M -5.09546,-216.751 H 356.106 V 144.45 H -5.09546 Z"
           fill="#ffffff"
           id="path20693" />
      </g>
    </mask>
    <clipPath
       clipPathUnits="userSpaceOnUse"
       id="clipPath20697">
      <g
         id="g20703">
        <g
           id="g20701">
          <rect
             width="144.701"
             height="100"
             fill="#ffffff"
             id="rect20699"
             x="0"
             y="0" />
        </g>
      </g>
    </clipPath>
  </defs>
</svg>
