<?xml version="1.0" encoding="UTF-8" standalone="no"?>
<!-- Created with Inkscape (http://www.inkscape.org/) -->

<svg
   width="65.009094mm"
   height="51.152435mm"
   viewBox="0 0 65.009094 51.152435"
   version="1.1"
   id="svg1529"
   inkscape:version="1.2.2 (732a01da63, 2022-12-09)"
   sodipodi:docname="logo-ipsum2.svg"
   xmlns:inkscape="http://www.inkscape.org/namespaces/inkscape"
   xmlns:sodipodi="http://sodipodi.sourceforge.net/DTD/sodipodi-0.dtd"
   xmlns="http://www.w3.org/2000/svg"
   xmlns:svg="http://www.w3.org/2000/svg">
  <sodipodi:namedview
     id="namedview1531"
     pagecolor="#ffffff"
     bordercolor="#000000"
     borderopacity="0.25"
     inkscape:showpageshadow="2"
     inkscape:pageopacity="0.0"
     inkscape:pagecheckerboard="0"
     inkscape:deskcolor="#d1d1d1"
     inkscape:document-units="mm"
     showgrid="false"
     inkscape:zoom="2.9006173"
     inkscape:cx="439.21686"
     inkscape:cy="453.52415"
     inkscape:window-width="1920"
     inkscape:window-height="1001"
     inkscape:window-x="-9"
     inkscape:window-y="-9"
     inkscape:window-maximized="1"
     inkscape:current-layer="layer1" />
  <defs
     id="defs1526">
    <rect
       x="213.7476"
       y="354.40732"
       width="448.18045"
       height="198.57841"
       id="rect2112" />
  </defs>
  <g
     inkscape:label="Layer 1"
     inkscape:groupmode="layer"
     id="layer1"
     transform="translate(-91.74309,-91.544797)">
    <path
       id="path1650"
       style="color:#000000;fill:#000000;-inkscape-stroke:none"
       d="m 124.05444,91.5448 c -8.99545,0 -16.9196,4.668165 -21.48034,11.70833 1.2761,0.11216 2.45058,0.71535 3.3352,1.6092 3.92996,-5.812975 10.58279,-9.625766 18.14514,-9.625766 12.10877,0 21.88497,9.775686 21.88497,21.884456 0,0.84137 -0.0492,1.67081 -0.14107,2.48718 0.0202,0.061 0.0403,0.12197 0.0605,0.18294 h 1.5844 c 0.35331,1.06642 0.70663,2.13284 1.05988,3.19929 0.31478,-0.93635 0.62938,-1.87276 0.94413,-2.80914 0.12022,-1.00375 0.18345,-2.02462 0.18345,-3.06027 0,-14.10353 -11.47269,-25.57622 -25.57622,-25.57622 z m -19.74453,15.98507 c -0.29323,-0.001 -0.58599,0.007 -0.87643,0.0501 -1.65356,0.27763 -2.43297,2.21699 -1.90428,3.69745 0.0202,0.0543 0.0381,0.10647 0.0553,0.15709 0.45199,0.0768 0.92473,0.0401 1.35702,-0.10749 0.35808,-1.31255 0.83404,-2.57583 1.41748,-3.77703 -0.003,-0.007 -0.008,-0.0129 -0.0108,-0.0196 -0.0127,-8e-5 -0.0255,-4.7e-4 -0.0382,-5.2e-4 z m -5.532477,5.68079 c -0.196469,1.27527 -0.29869,2.58093 -0.29869,3.91036 0,14.1035 11.472197,25.57621 25.575697,25.57621 8.24384,0 15.58588,-3.92232 20.26595,-9.99629 h -2.14199 c 0.0891,-0.51699 0.17888,-1.03383 0.2682,-1.55081 h -1.58078 c -4.01082,4.80518 -10.04655,7.85792 -16.81138,7.85792 -12.10874,0 -21.88652,-9.77829 -21.88652,-21.88703 0,-0.5473 0.0221,-1.08925 0.0615,-1.62626 -1.19241,-0.41515 -2.19412,-1.31388 -3.194121,-2.07068 0.01742,0.002 0.03477,0.005 0.05219,0.007 -0.105605,-0.0701 -0.209378,-0.14285 -0.310059,-0.22014 z m 47.146477,16.76642 c -0.0311,0.17951 -0.0624,0.35896 -0.0935,0.53847 0.0589,-0.0955 0.12006,-0.18949 0.17776,-0.28577 -0.0281,-0.0842 -0.0562,-0.16846 -0.0842,-0.2527 z" />
    <path
       id="path2263"
       style="font-weight:bold;font-size:45.8384px;font-family:'Century Gothic';-inkscape-font-specification:'Century Gothic, Bold';white-space:pre;fill:#323232;fill-opacity:1;stroke-width:2.60148"
       d="m 124.28647,106.07673 c -0.16534,1.9e-4 -0.33037,0.0119 -0.49351,0.0403 -0.24391,0.0378 -0.46923,0.11232 -0.67438,0.21652 -0.47577,0.38051 -0.86985,0.84082 -1.18132,1.38131 -0.0202,0.035 -0.0396,0.0701 -0.0589,0.10542 -0.31393,0.90318 -0.20872,1.97108 0.42064,2.71353 0.24945,0.32369 0.57338,0.56311 0.93328,0.71934 -0.087,-0.30664 -0.13074,-0.63843 -0.13074,-0.99581 0,-0.94456 0.30017,-1.72332 0.89969,-2.33577 0.59952,-0.61245 1.33912,-0.91829 2.21898,-0.91829 0.0168,0 0.0334,2.8e-4 0.0501,5.1e-4 -0.40705,-0.5082 -0.98736,-0.86482 -1.6862,-0.9157 -0.0989,-0.007 -0.19846,-0.0115 -0.29766,-0.0114 z m 4.86689,0.12661 c 0.45427,0.85448 0.6879,1.82771 0.61443,2.82876 -0.002,0.80804 -0.21287,1.58893 -0.57878,2.29082 -0.14742,0.45411 -0.39499,0.85995 -0.7431,1.21801 -0.21997,0.22626 -0.45733,0.41118 -0.71107,0.55501 -1.0159,0.82448 -2.31128,1.29842 -3.64422,1.18959 -0.30618,4.5e-4 -0.60732,-0.0298 -0.90124,-0.0868 0.85372,0.68456 1.87434,1.02733 3.06286,1.02733 1.36293,0 2.52102,-0.48099 3.47421,-1.4428 0.9575,-0.96182 1.4366,-2.13708 1.4366,-3.52589 0,-1.40174 -0.48528,-2.58989 -1.45572,-3.56464 -0.17808,-0.17967 -0.363,-0.34282 -0.55397,-0.48937 z m -11.20449,-0.35192 c -0.46142,0.45658 -0.92282,0.91302 -1.38493,1.36891 0.52385,0.19103 1.00828,0.5081 1.45315,0.95136 h 0.22272 l 1.16117,-1.14928 c -0.47539,-0.51413 -0.95946,-0.90412 -1.45211,-1.17099 z m -4.66638,0.20774 c -0.57316,0.005 -1.12382,0.21266 -1.5751,0.5519 -0.0924,0.0897 -0.18255,0.18372 -0.27026,0.28216 -0.26014,0.29113 -0.47952,0.59824 -0.65836,0.92139 -8e-5,2e-4 -4.4e-4,3.1e-4 -5.2e-4,5.1e-4 -0.17061,0.43093 -0.22485,0.90783 -0.11989,1.39062 0.10869,0.8883 0.71673,1.5907 1.48932,1.97765 -0.0942,-0.30795 -0.14108,-0.6362 -0.14108,-0.98443 0,-0.88849 0.31442,-1.64338 0.94413,-2.26446 0.63402,-0.62108 1.41947,-0.93121 2.35541,-0.93121 0.1194,0 0.23686,0.005 0.35295,0.0155 -0.55853,-0.49576 -1.20885,-0.88922 -1.97456,-0.92966 -0.13457,-0.0215 -0.26894,-0.0312 -0.40204,-0.03 z m 5.29477,4.10104 c -0.12299,0.60052 -0.34152,1.17845 -0.67335,1.70171 h 0.1323 c -0.2631,0.5607 -0.61049,0.97249 -1.0418,1.23558 -0.10624,0.0655 -0.21892,0.12239 -0.33745,0.17157 -1.19211,0.89247 -2.79815,1.21798 -4.27106,0.94464 -0.10716,-0.0129 -0.21315,-0.0296 -0.31832,-0.0496 0.19706,0.15556 0.40706,0.29607 0.63097,0.42116 0.77635,0.427 1.65866,0.64079 2.64635,0.64079 0.923,0 1.727,-0.19662 2.41277,-0.58911 0.68578,-0.39249 1.24456,-0.96175 1.67587,-1.70791 0.4313,-0.74616 0.64699,-1.53538 0.64699,-2.36781 l -0.0129,-0.40101 z m -16.54628,-4.08347 c -0.16532,2.8e-4 -0.33084,0.0121 -0.49403,0.0403 -0.24376,0.0376 -0.46837,0.11241 -0.67334,0.21652 -0.47591,0.38056 -0.870303,0.8407 -1.181839,1.38131 -0.01887,0.0327 -0.03672,0.0657 -0.05478,0.0987 -0.326299,0.93278 -0.206727,2.04252 0.474909,2.78691 0.24064,0.29231 0.54292,0.51026 0.87592,0.65526 -0.0875,-0.30734 -0.13126,-0.64004 -0.13126,-0.99839 0,-0.94456 0.29965,-1.72332 0.89917,-2.33577 0.59951,-0.61245 1.33912,-0.91829 2.21898,-0.91829 0.0168,0 0.0334,2.8e-4 0.0501,5.1e-4 -0.40777,-0.50829 -0.98882,-0.86473 -1.68672,-0.9157 -0.0989,-0.007 -0.19795,-0.0115 -0.29714,-0.0114 z m 4.86585,0.12506 c 0.45463,0.85489 0.6883,1.82852 0.61495,2.83031 -0.001,0.80983 -0.21279,1.59208 -0.57981,2.29495 -0.14758,0.45242 -0.39451,0.85693 -0.74155,1.21388 -0.21939,0.22566 -0.45602,0.41031 -0.709,0.55398 -1.01644,0.82527 -2.31244,1.29944 -3.64629,1.19062 -0.30607,4.1e-4 -0.60744,-0.0298 -0.90124,-0.0868 0.85372,0.68456 1.87486,1.02733 3.06338,1.02733 1.36292,0 2.52102,-0.48099 3.47421,-1.4428 0.9575,-0.96182 1.43608,-2.13708 1.43608,-3.52589 0,-1.40174 -0.48529,-2.58989 -1.45572,-3.56464 -0.1786,-0.1802 -0.36343,-0.34404 -0.55501,-0.49092 z m -12.81265,-0.73226 v 5.80016 h 1.385962 v -5.80016 z m 2.638598,7.78971 v 0.79736 h -3.063895 v 0.93018 h 4.450891 v -1.72754 z" />
    <path
       id="text2110"
       style="font-weight:bold;font-size:45.8384px;font-family:'Century Gothic';-inkscape-font-specification:'Century Gothic, Bold';white-space:pre;shape-inside:url(#rect2112);fill:#333333;fill-opacity:1;stroke-width:9"
       d="m 218.92673,363.10021 v 30.08717 h -1.86645 v 2.837 h 6.22246 v -2.837 h -0.26992 v -30.08717 z m 62.6323,0 c -0.0161,6.39354 -0.0989,12.78898 0.0962,19.17562 -0.02,2.28185 2.37069,3.11141 4.26268,2.60728 -0.003,-0.16151 -0.01,-0.30439 -0.01,-0.47522 v -21.30768 z m 15.99547,0 v 11.15563 c -0.24893,4.80879 0.81841,10.21545 -2.06745,14.44057 -2.65142,4.24877 -7.91334,5.89341 -12.70334,5.17581 0.51711,0.48552 1.10315,0.93413 1.75877,1.34528 1.77564,1.08926 3.85658,1.63386 6.24399,1.63386 1.8204,0 3.41683,-0.28294 4.7896,-0.84995 1.37276,-0.58193 2.58216,-1.46957 3.62665,-2.66328 0.0442,-0.0498 0.079,-0.10077 0.12204,-0.15075 h -0.22397 c 0.93776,-5.42117 1.87351,-10.84252 2.80972,-16.26396 v -13.82321 z m 18.09021,0 c 1.54668,4.66999 3.09561,9.33969 4.64171,14.00986 0.4787,-1.42422 0.95686,-2.84857 1.43573,-4.27273 l -3.22608,-9.73713 z m 20.61421,0 c 1.69033,10.02928 3.38328,20.05745 5.071,30.08717 h -2.43356 l 0.48241,2.837 h 6.04299 l -5.55054,-32.92417 z m -67.20223,0.69202 c -1.69808,1.50144 -3.39626,3.00205 -5.09397,4.50389 1.58146,0.128 3.13746,1.24367 4.66612,3.3754 l 3.67978,-3.25336 c 0.005,-0.62456 0.009,-1.24909 0.0144,-1.87363 -1.14296,-1.20278 -2.23175,-2.1188 -3.26629,-2.7523 z m -24.25953,0.34745 c 1.20754,3.26778 0.96326,7.16846 -0.87724,10.09893 -2.42807,3.95633 -7.33489,5.17063 -11.69833,4.98198 v 13.96679 h -1.91095 v 2.837 h 6.26696 v -13.94525 c 3.19317,0 5.39429,-0.1708 6.60292,-0.51399 2.05915,-0.59685 3.68495,-1.65673 4.87861,-3.17871 1.19553,-1.50543 1.79749,-3.39214 1.81046,-5.65677 -0.99684,-1.30358 -1.78751,-2.74571 -2.22538,-4.41344 -0.21036,-0.80858 -0.29162,-1.61912 -0.25987,-2.4149 -0.72699,-0.75203 -1.58869,-1.34017 -2.58718,-1.76164 z m 12.96464,1.29647 c -0.6415,0.002 -1.18165,0.26782 -1.20314,0.96194 1.24829,1.56172 2.76395,2.88444 4.3158,4.1751 -0.003,-0.0518 -0.0129,-0.10276 -0.0129,-0.15506 0,-0.55209 0.26166,-1.04465 0.78391,-1.47737 0.10193,-0.0874 0.21405,-0.15946 0.32735,-0.22971 -0.67455,-0.90631 -1.33977,-1.82889 -2.24836,-2.51253 -0.37911,-0.43032 -1.23561,-0.76507 -1.96264,-0.76237 z m -25.29039,0.95619 c -0.59467,0.70847 -0.0742,2.65673 -0.24982,3.79894 1.43269,-0.11671 3.92046,0.41343 4.26556,-1.52474 0.39796,-2.30477 -2.46328,-2.28253 -4.01574,-2.2742 z m 97.0726,10.53826 c -1.82512,5.41912 -3.6505,10.83775 -5.47587,16.25678 h -1.70278 l 0.94328,2.837 h 5.52756 l 2.62595,-7.79601 c -0.63979,-3.76605 -1.27876,-7.53165 -1.91814,-11.29777 z m -18.53097,0.006 c -0.93879,5.41733 -1.87803,10.83372 -2.8169,16.25103 h -1.02798 l -0.48959,2.837 h 6.11047 l 1.56782,-9.04366 c -1.11425,-3.34846 -2.2288,-6.69618 -3.34382,-10.04437 z m -42.86086,1.09977 c 1.40898,2.70927 1.82009,5.90482 0.73366,8.84984 -1.70056,5.20186 -7.58028,7.81935 -12.76077,7.02072 0.47586,0.46423 0.9713,0.87635 1.49172,1.22181 1.7458,1.14894 3.78936,1.72287 6.13201,1.72287 2.99915,0 5.43269,-0.87959 7.29781,-2.64031 1.79658,-1.69592 2.71788,-3.83238 2.78389,-6.40048 -0.77122,-1.44402 -1.23031,-3.0577 -1.2778,-4.7336 -0.007,-0.11486 -0.0118,-0.22971 -0.0187,-0.34458 -0.52884,-0.88375 -1.25336,-1.79376 -2.18231,-2.73363 -0.31841,-0.32778 -1.14067,-1.05282 -2.19954,-1.96264 z"
       transform="matrix(0.35993131,0,0,0.35993131,32.424084,-10.370314)" />
    <path
       id="path4823"
       style="font-weight:bold;font-size:45.8384px;font-family:'Century Gothic';-inkscape-font-specification:'Century Gothic, Bold';white-space:pre;fill:#000000;stroke-width:3.23938"
       d="m 142.75544,118.76999 h 2.20734 l 2.73904,8.26544 2.77932,-8.26544 h 2.17512 l 1.99788,11.85036 h -2.17512 l -1.27284,-7.48402 -2.52153,7.48402 h -1.98983 l -2.4893,-7.48402 -1.29702,7.48402 h -2.19928 z m -11.78592,0 h 2.26374 v 7.6693 q 0,0.99089 0.16917,1.40174 0.17723,0.41086 0.57198,0.6606 0.4028,0.24167 0.96672,0.24167 0.59614,0 1.02311,-0.2739 0.43502,-0.2739 0.59614,-0.69281 0.16918,-0.42697 0.16918,-1.61926 v -7.38734 h 2.26373 v 7.0651 q 0,1.78843 -0.2014,2.48125 -0.2014,0.69281 -0.77337,1.33729 -0.56392,0.64448 -1.30507,0.95867 -0.74116,0.30612 -1.72399,0.30612 -1.28896,0 -2.24762,-0.58808 -0.95061,-0.59615 -1.36146,-1.48231 -0.41086,-0.89421 -0.41086,-3.01294 z m -2.2879,1.61119 -1.66759,1.47425 q -0.87811,-1.22451 -1.78843,-1.22451 -0.44308,0 -0.72504,0.24168 -0.28196,0.23362 -0.28196,0.53169 0,0.29808 0.2014,0.56392 0.2739,0.35447 1.65147,1.52259 1.28897,1.0795 1.56287,1.36146 0.68476,0.69281 0.96672,1.32924 0.29001,0.62837 0.29001,1.37757 0,1.45814 -1.007,2.40875 -1.00699,0.9506 -2.62625,0.9506 -1.26479,0 -2.20734,-0.62031 -0.9345,-0.62031 -1.60314,-1.94955 l 1.89315,-1.14395 q 0.85394,1.57092 1.96567,1.57092 0.58003,0 0.97477,-0.33835 0.39475,-0.33835 0.39475,-0.78143 0,-0.4028 -0.29808,-0.8056 -0.29807,-0.4028 -1.31312,-1.23257 -1.93344,-1.57898 -2.49736,-2.43291 -0.56392,-0.86199 -0.56392,-1.71593 0,-1.23256 0.93449,-2.11067 0.94256,-0.88616 2.32013,-0.88616 0.88616,0 1.6837,0.41086 0.8056,0.41085 1.7401,1.49841 z m -15.45946,-1.61119 h 2.39263 q 1.9415,0 2.79544,0.36252 0.86199,0.35446 1.3534,1.16006 0.49947,0.79754 0.49947,1.91732 0,1.24063 -0.65253,2.06234 -0.64448,0.82171 -1.75621,1.14395 -0.65254,0.18529 -2.37652,0.18529 v 5.01888 h -2.25568 z m 2.25568,4.63219 h 0.71699 q 0.84587,0 1.17617,-0.12084 0.3303,-0.12084 0.51559,-0.39474 0.19334,-0.28196 0.19334,-0.67671 0,-0.68476 -0.5317,-0.99894 -0.38669,-0.23362 -1.43396,-0.23362 h -0.63643 z m -7.02482,-4.63219 h 2.23956 v 11.85036 h -2.23956 z" />
    <path
       id="path2042"
       style="font-weight:bold;font-size:45.8384px;font-family:'Century Gothic';-inkscape-font-specification:'Century Gothic, Bold';white-space:pre;fill:#000000;stroke-width:2.60148"
       d="m 91.743096,104.01029 h 1.811487 v 7.7894 h 2.639595 v 1.72738 h -4.451082 z m 32.580884,-0.23937 q 2.01852,0 3.46771,1.46213 1.45566,1.46213 1.45566,3.56474 0,2.08321 -1.43625,3.52594 -1.42979,1.44271 -3.47418,1.44271 -2.14144,0 -3.55828,-1.48153 -1.41684,-1.48154 -1.41684,-3.51946 0,-1.36509 0.6599,-2.51021 0.6599,-1.14512 1.81149,-1.81148 1.15805,-0.67284 2.49079,-0.67284 z m -0.0194,1.77267 q -1.3198,0 -2.21908,0.91868 -0.89927,0.91868 -0.89927,2.33552 0,1.57858 1.13218,2.49727 0.87986,0.71812 2.01851,0.71812 1.28745,0 2.1932,-0.93162 0.90574,-0.93162 0.90574,-2.2967 0,-1.35862 -0.91221,-2.29671 -0.91222,-0.94456 -2.21907,-0.94456 z m -6.81896,0.0194 -1.27451,1.26157 q -1.20981,-1.28098 -2.82074,-1.28098 -1.40391,0 -2.35494,0.93162 -0.94456,0.93162 -0.94456,2.26436 0,1.37802 0.98338,2.33552 0.98338,0.9575 2.4261,0.9575 0.93809,0 1.57858,-0.39464 0.64696,-0.39465 1.04161,-1.2357 h -2.75605 v -1.7015 h 4.7875 l 0.013,0.40111 q 0,1.24864 -0.64696,2.36788 -0.64696,1.11924 -1.67563,1.70797 -1.02866,0.58873 -2.41316,0.58873 -1.48153,0 -2.64606,-0.64049 -1.15806,-0.64695 -1.83737,-1.83736 -0.67283,-1.19041 -0.67283,-2.56843 0,-1.88912 1.24863,-3.28656 1.48154,-1.66268 3.85588,-1.66268 1.24216,0 2.32258,0.45934 0.91221,0.38818 1.78561,1.33274 z m -15.41705,-1.79208 q 2.01852,0 3.4677,1.46213 1.45566,1.46213 1.45566,3.56474 0,2.08321 -1.43625,3.52594 -1.42978,1.44271 -3.47417,1.44271 -2.141436,0 -3.558278,-1.48153 -1.416841,-1.48154 -1.416841,-3.51946 0,-1.36509 0.659899,-2.51021 0.659898,-1.14512 1.811487,-1.81148 1.158053,-0.67284 2.490793,-0.67284 z m -0.0194,1.77267 q -1.3198,0 -2.21907,0.91868 -0.899274,0.91868 -0.899274,2.33552 0,1.57858 1.132184,2.49727 0.87986,0.71812 2.01851,0.71812 1.28745,0 2.19319,-0.93162 0.90575,-0.93162 0.90575,-2.2967 0,-1.35862 -0.91222,-2.29671 -0.91221,-0.94456 -2.21907,-0.94456 z m -10.306074,-1.53329 h 1.811487 v 7.7894 h 2.639595 v 1.72738 h -4.451082 z" />
  </g>
</svg>
