<svg width="121" height="96" viewBox="0 0 121 96" fill="none" xmlns="http://www.w3.org/2000/svg">
<g clip-path="url(#clip0_320_4884)">
<path d="M60.1404 0C43.3973 0 28.6483 8.76095 20.1595 21.9735C22.5346 22.184 24.7207 23.3161 26.3672 24.9936C33.6819 14.0841 46.0647 6.9285 60.1404 6.9285C82.6781 6.9285 100.874 25.2749 100.874 48C100.874 49.579 100.783 51.1357 100.612 52.6678C100.649 52.7823 100.687 52.8967 100.724 53.0111H103.673C104.331 55.0125 104.989 57.0139 105.646 59.0154C106.232 57.2581 106.818 55.5007 107.403 53.7434C107.627 51.8596 107.745 49.9437 107.745 48C107.745 21.5313 86.3909 0 60.1404 0ZM23.3903 29.9999C22.8445 29.998 22.2996 30.013 21.759 30.0939C18.6813 30.6149 17.2306 34.2546 18.2146 37.0331C18.2522 37.135 18.2855 37.2329 18.3175 37.3279C19.1588 37.472 20.0387 37.4031 20.8433 37.1262C21.5098 34.6628 22.3957 32.292 23.4817 30.0376C23.4761 30.0245 23.4668 30.0134 23.4616 30.0009C23.4379 30.0007 23.4139 30 23.3903 29.9999ZM13.0928 40.6613C12.7271 43.0546 12.5369 45.505 12.5369 48C12.5369 74.4687 33.8898 96 60.1404 96C75.4844 96 89.15 88.6388 97.8609 77.2395H93.8741C94.0399 76.2693 94.207 75.2993 94.3733 74.3291H91.431C83.9657 83.3471 72.7316 89.0764 60.1404 89.0764C37.6026 89.0764 19.4035 70.725 19.4035 48C19.4035 46.9729 19.4446 45.9558 19.5179 44.9479C17.2985 44.1688 15.4341 42.4821 13.5728 41.0618C13.6052 41.0656 13.6375 41.0712 13.6699 41.0749C13.4733 40.9434 13.2802 40.8063 13.0928 40.6613ZM100.846 72.1275C100.788 72.4644 100.729 72.8012 100.671 73.1381C100.781 72.9589 100.895 72.7825 101.002 72.6018C100.95 72.4438 100.898 72.2856 100.846 72.1275Z" fill="white"/>
<path d="M60.5721 27.2729C60.2644 27.2732 59.9572 27.2952 59.6536 27.3485C59.1996 27.4194 58.7802 27.5593 58.3984 27.7548C57.5128 28.469 56.7793 29.3329 56.1996 30.3472C56.162 30.4129 56.1259 30.4788 56.09 30.5451C55.5057 32.2401 55.7015 34.2443 56.8729 35.6377C57.3372 36.2451 57.9401 36.6945 58.61 36.9877C58.4481 36.4122 58.3666 35.7895 58.3666 35.1188C58.3666 33.3461 58.9253 31.8846 60.0412 30.7352C61.1571 29.5857 62.5337 29.0118 64.1714 29.0118C64.2026 29.0118 64.2335 29.0123 64.2646 29.0127C63.507 28.059 62.4269 27.3897 61.1261 27.2942C60.942 27.281 60.7568 27.2727 60.5721 27.2729ZM69.6308 27.5105C70.4763 29.1141 70.9111 30.9406 70.7744 32.8193C70.7707 34.3358 70.3782 35.8014 69.6971 37.1186C69.4227 37.9709 68.9619 38.7325 68.314 39.4045C67.9046 39.8291 67.4628 40.1762 66.9905 40.4461C65.0996 41.9935 62.6886 42.8829 60.2076 42.6787C59.6377 42.6795 59.0772 42.6228 58.5301 42.5158C60.1191 43.8005 62.0188 44.4438 64.231 44.4438C66.7678 44.4438 68.9233 43.5411 70.6975 41.736C72.4796 39.9309 73.3714 37.7253 73.3714 35.1189C73.3714 32.4881 72.4681 30.2583 70.6619 28.4289C70.3304 28.0917 69.9862 27.7855 69.6308 27.5105ZM48.7761 26.85C47.9173 27.7069 47.0585 28.5635 46.1984 29.4191C47.1734 29.7776 48.075 30.3727 48.9031 31.2046H49.3176L51.4789 29.0477C50.594 28.0828 49.693 27.3509 48.7761 26.85ZM40.0907 27.2399C39.0239 27.2493 37.9989 27.639 37.159 28.2757C36.987 28.444 36.8192 28.6205 36.6559 28.8052C36.1718 29.3516 35.7634 29.928 35.4305 30.5344C35.4307 30.534 35.4304 30.5348 35.4305 30.5344C35.113 31.3432 35.0111 32.2391 35.2064 33.1452C35.4087 34.8123 36.5405 36.1305 37.9785 36.8568C37.8031 36.2788 37.7159 35.6628 37.7159 35.0092C37.7159 33.3418 38.3011 31.925 39.4732 30.7594C40.6533 29.5938 42.1152 29.0118 43.8572 29.0118C44.0795 29.0118 44.2981 29.0212 44.5142 29.0409C43.4746 28.1105 42.2642 27.372 40.839 27.2961C40.5885 27.2558 40.3384 27.2376 40.0907 27.2399ZM49.9457 34.9365C49.7168 36.0635 49.31 37.1481 48.6924 38.1302H48.9387C48.449 39.1824 47.8024 39.9553 46.9996 40.449C46.8018 40.572 46.5921 40.6787 46.3715 40.771C44.1526 42.446 41.1634 43.0569 38.4219 42.5439C38.2224 42.5197 38.0251 42.4883 37.8294 42.4508C38.1962 42.7427 38.587 43.0064 39.0038 43.2412C40.4488 44.0426 42.091 44.4438 43.9294 44.4438C45.6473 44.4438 47.1438 44.0748 48.4202 43.3382C49.6966 42.6016 50.7367 41.5332 51.5395 40.1329C52.3422 38.7325 52.7437 37.2514 52.7437 35.6891L52.7197 34.9365L49.9457 34.9365ZM19.1485 27.2729C18.8408 27.2734 18.5327 27.2956 18.2289 27.3485C17.7752 27.4191 17.3572 27.5595 16.9757 27.7548C16.0899 28.4691 15.3558 29.3326 14.7759 30.3472C14.7408 30.4086 14.7076 30.4705 14.674 30.5324C14.0667 32.283 14.2892 34.3657 15.5579 35.7628C16.0058 36.3114 16.5684 36.7204 17.1883 36.9925C17.0254 36.4157 16.9439 35.7913 16.9439 35.1188C16.9439 33.3461 17.5017 31.8846 18.6175 30.7352C19.7334 29.5857 21.11 29.0118 22.7477 29.0118C22.7789 29.0118 22.8098 29.0123 22.8409 29.0127C22.082 28.0588 21.0005 27.3898 19.7015 27.2942C19.5174 27.281 19.3331 27.2727 19.1485 27.2729ZM28.2052 27.5076C29.0514 29.112 29.4863 30.9392 29.3498 32.8193C29.3479 34.3392 28.9537 35.8073 28.2706 37.1264C27.9959 37.9754 27.5363 38.7346 26.8904 39.4045C26.482 39.828 26.0416 40.1746 25.5707 40.4442C23.6788 41.993 21.2666 42.8829 18.7839 42.6787C18.2143 42.6794 17.6533 42.6228 17.1065 42.5158C18.6955 43.8005 20.5961 44.4438 22.8083 44.4438C25.3451 44.4438 27.5006 43.5411 29.2748 41.736C31.0569 39.9309 31.9477 37.7253 31.9477 35.1189C31.9477 32.4881 31.0444 30.2583 29.2382 28.4289C28.9058 28.0908 28.5618 27.7832 28.2052 27.5076ZM4.35728 26.1333V37.0187H6.93693V26.1333H4.35728ZM9.26844 40.7526V42.249H3.56567V43.9947H11.85V40.7526H9.26844Z" fill="#515151"/>
<path d="M36.257 54.0054V74.3292H35.0066V76.2456H39.1752V74.3292H38.9944V54.0054H36.257ZM78.2164 54.0054C78.2056 58.3242 78.1501 62.6443 78.2808 66.9585C78.2674 68.4999 79.869 69.0602 81.1365 68.7197C81.1345 68.6106 81.1298 68.5141 81.1298 68.3987V54.0054H78.2164ZM88.9323 54.0054V61.541C88.7655 64.7893 89.4806 68.4415 87.5472 71.2956C85.7709 74.1656 82.2458 75.2766 79.0368 74.7918C79.3833 75.1198 79.7759 75.4228 80.2151 75.7006C81.4047 76.4363 82.7987 76.8042 84.3981 76.8042C85.6177 76.8042 86.6872 76.6131 87.6069 76.2301C88.5265 75.837 89.3367 75.2374 90.0365 74.431C90.0661 74.3974 90.0894 74.363 90.1182 74.3292H89.9682C90.5964 70.6672 91.2233 67.0051 91.8505 63.3429V54.0054H88.9323ZM101.051 54.0054C102.088 57.1599 103.125 60.3143 104.161 63.469C104.482 62.507 104.802 61.5448 105.123 60.5828L102.962 54.0054H101.051ZM114.862 54.0054C115.994 60.7801 117.128 67.5541 118.259 74.3292H116.629L116.952 76.2456H121L117.282 54.0054H114.862ZM69.8407 54.4728C68.7031 55.487 67.5654 56.5007 66.428 57.5152C67.4875 57.6017 68.5299 58.3553 69.554 59.7953L72.0192 57.5976C72.0226 57.1757 72.0253 56.7539 72.0289 56.332C71.2632 55.5195 70.5337 54.9008 69.8407 54.4728ZM53.5884 54.7075C54.3974 56.9149 54.2337 59.5498 53.0007 61.5293C51.3741 64.2018 48.0868 65.0221 45.1636 64.8947V74.3292H43.8834V76.2456H48.0819V66.8256C50.2211 66.8256 51.6957 66.7102 52.5054 66.4784C53.8849 66.0752 54.974 65.3593 55.7737 64.3312C56.5746 63.3143 56.9779 62.0398 56.9866 60.51C56.3188 59.6295 55.7891 58.6553 55.4958 57.5288C55.3548 56.9826 55.3004 56.4351 55.3217 55.8975C54.8346 55.3895 54.2573 54.9922 53.5884 54.7075ZM62.2739 55.5833C61.8441 55.5846 61.4822 55.7642 61.4678 56.2331C62.3041 57.288 63.3195 58.1815 64.3591 59.0533C64.3571 59.0184 64.3505 58.9839 64.3505 58.9486C64.3505 58.5757 64.5258 58.243 64.8757 57.9507C64.9439 57.8916 65.019 57.8429 65.0949 57.7955C64.643 57.1833 64.1974 56.5601 63.5887 56.0983C63.3347 55.8076 62.7609 55.5815 62.2739 55.5833ZM45.331 56.2292C44.9326 56.7078 45.2813 58.0238 45.1636 58.7954C46.1234 58.7165 47.7901 59.0746 48.0213 57.7654C48.2879 56.2085 46.371 56.2236 45.331 56.2292ZM110.363 63.3478C109.14 67.0084 107.917 70.6687 106.695 74.3292H105.554L106.186 76.2456H109.889L111.648 70.9794C111.219 68.4354 110.791 65.8918 110.363 63.3478ZM97.9486 63.3518C97.3196 67.0112 96.6904 70.67 96.0614 74.3294H95.3728L95.0448 76.2458H99.1384L100.189 70.1368C99.4422 67.8749 98.6956 65.6135 97.9486 63.3518ZM69.2347 64.0947C70.1786 65.9248 70.454 68.0834 69.7262 70.0728C68.5869 73.5866 64.6479 75.3547 61.1773 74.8153C61.4961 75.1288 61.8281 75.4073 62.1767 75.6406C63.3463 76.4167 64.7153 76.8044 66.2847 76.8044C68.294 76.8044 69.9243 76.2102 71.1738 75.0209C72.3774 73.8753 72.9946 72.4321 73.0388 70.6974C72.5221 69.7219 72.2146 68.6319 72.1828 67.4998C72.1781 67.4222 72.1748 67.3446 72.1702 67.267C71.8159 66.6701 71.3306 66.0554 70.7082 65.4205C70.4949 65.1991 69.9441 64.7093 69.2347 64.0947Z" fill="#515151"/>
<path d="M94.9482 51.0946H99.0566L104.155 66.6067L109.328 51.0946H113.376L117.095 73.3347H113.046L110.677 59.2891L105.984 73.3347H102.28L97.6472 59.2891L95.233 73.3347H91.1396L94.9482 51.0946ZM73.0113 51.0946H77.2247V65.4879C77.2247 66.7277 77.3297 67.6045 77.5396 68.1186C77.7595 68.6326 78.1144 69.0459 78.6042 69.3584C79.104 69.6607 79.7038 69.8119 80.4036 69.8119C81.1433 69.8119 81.778 69.6406 82.3078 69.2979C82.8476 68.9552 83.2175 68.5218 83.4174 67.9977C83.6273 67.4634 83.7323 66.4505 83.7323 64.9587V51.0946H87.9457V64.354C87.9457 66.5916 87.8208 68.1438 87.5709 69.0106C87.321 69.8775 86.8412 70.714 86.1314 71.5204C85.4317 72.3267 84.622 72.9265 83.7023 73.3196C82.7827 73.7026 81.713 73.8941 80.4935 73.8941C78.8941 73.8941 77.4996 73.5262 76.3101 72.7904C75.1305 72.0445 74.2858 71.1172 73.776 70.0085C73.2662 68.8897 73.0113 67.0048 73.0113 64.354V51.0946ZM68.7529 54.1184L65.649 56.8852C64.5594 55.3531 63.4498 54.5871 62.3202 54.5871C61.7705 54.5871 61.3206 54.7383 60.9707 55.0406C60.6209 55.3329 60.4459 55.6655 60.4459 56.0385C60.4459 56.4114 60.5709 56.7642 60.8208 57.0968C61.1607 57.5403 62.1853 58.4928 63.8946 59.9543C65.4941 61.305 66.4637 62.1567 66.8036 62.5094C67.6533 63.3763 68.253 64.2078 68.6029 65.0041C68.9628 65.7903 69.1427 66.6521 69.1427 67.5894C69.1427 69.4138 68.5179 70.9207 67.2684 72.11C66.0189 73.2994 64.3895 73.8941 62.3802 73.8941C60.8108 73.8941 59.4413 73.506 58.2717 72.7299C57.1122 71.9538 56.1175 70.7342 55.2879 69.0711L58.8115 66.9242C59.8711 68.8897 61.0907 69.8724 62.4702 69.8724C63.1899 69.8724 63.7947 69.6607 64.2845 69.2374C64.7743 68.8141 65.0193 68.3252 65.0193 67.7709C65.0193 67.2669 64.8343 66.7629 64.4644 66.259C64.0946 65.755 63.2799 64.9839 62.0204 63.9457C59.6212 61.9702 58.0718 60.4482 57.3721 59.3798C56.6723 58.3013 56.3225 57.2279 56.3225 56.1594C56.3225 54.6173 56.9022 53.2969 58.0618 52.1983C59.2314 51.0895 60.6709 50.5352 62.3802 50.5352C63.4798 50.5352 64.5244 50.7922 65.5141 51.3062C66.5137 51.8203 67.5933 52.7577 68.7529 54.1184ZM39.9785 51.0946H44.4319C46.841 51.0946 48.5753 51.3214 49.635 51.7749C50.7046 52.2184 51.5442 52.9441 52.154 53.9521C52.7738 54.9499 53.0837 56.1494 53.0837 57.5504C53.0837 59.1026 52.6788 60.3928 51.8691 61.4209C51.0694 62.449 49.9798 63.1646 48.6003 63.5678C47.7906 63.7996 46.3162 63.9155 44.1769 63.9155V73.3347H39.9785V51.0946ZM44.1769 59.788H45.5115C46.5611 59.788 47.2908 59.7124 47.7007 59.5612C48.1105 59.41 48.4304 59.1631 48.6603 58.8204C48.9002 58.4676 49.0202 58.0443 49.0202 57.5504C49.0202 56.6936 48.6903 56.0687 48.0305 55.6756C47.5507 55.3833 46.661 55.2372 45.3615 55.2372H44.1769V59.788ZM31.1018 51.0946H35.2703V73.3347H31.1018V51.0946Z" fill="white"/>
<path d="M0 23.3946H3.37168V38.0133H8.2847V41.2551H0V23.3946ZM60.6421 22.9453C63.1468 22.9453 65.2982 23.86 67.0965 25.6894C68.9027 27.5187 69.8058 29.7488 69.8058 32.3795C69.8058 34.9859 68.9148 37.1917 67.1326 38.9968C65.3584 40.8018 63.203 41.7044 60.6662 41.7044C58.009 41.7044 55.8013 40.7775 54.0432 38.9239C52.2851 37.0703 51.4061 34.8685 51.4061 32.3188C51.4061 30.6108 51.8155 29.0405 52.6343 27.6078C53.4532 26.175 54.5771 25.0418 56.006 24.2081C57.443 23.3663 58.9884 22.9453 60.6421 22.9453ZM60.606 26.2722C58.9683 26.2722 57.5915 26.8469 56.4757 27.9963C55.3598 29.1457 54.8019 30.6068 54.8019 32.3795C54.8019 34.3545 55.5043 35.9168 56.9092 37.0662C58.0009 37.9647 59.2533 38.4139 60.6662 38.4139C62.2637 38.4139 63.6244 37.8311 64.7483 36.6655C65.8722 35.4999 66.4342 34.0631 66.4342 32.3552C66.4342 30.6554 65.8682 29.2186 64.7363 28.0449C63.6044 26.8631 62.2276 26.2722 60.606 26.2722ZM47.914 26.3086L45.5418 28.6762C44.0406 27.0735 42.2905 26.2722 40.2916 26.2722C38.5496 26.2722 37.0885 26.855 35.9084 28.0206C34.7363 29.1862 34.1503 30.6027 34.1503 32.2702C34.1503 33.9943 34.7604 35.4554 35.9807 36.6534C37.2009 37.8514 38.7061 38.4503 40.4963 38.4503C41.6603 38.4503 42.6397 38.2035 43.4345 37.7097C44.2373 37.2159 44.8835 36.4429 45.3732 35.3906H40.2434V32.1973H49.1543L49.1785 32.9501C49.1785 34.5124 48.7771 35.9937 47.9743 37.394C47.1715 38.7944 46.1319 39.8628 44.8555 40.5994C43.5791 41.336 42.0819 41.7043 40.3639 41.7043C38.5256 41.7043 36.8839 41.3037 35.4389 40.5023C34.0019 39.6929 32.862 38.5434 32.019 37.0541C31.1842 35.5647 30.7667 33.9579 30.7667 32.2338C30.7667 29.8702 31.5414 27.8142 33.0908 26.0657C34.9291 23.9855 37.3214 22.9453 40.2676 22.9453C41.809 22.9453 43.25 23.2327 44.5906 23.8074C45.7225 24.293 46.8302 25.1268 47.914 26.3086ZM19.2186 22.9453C21.7233 22.9453 23.8747 23.86 25.6729 25.6894C27.4792 27.5187 28.3823 29.7488 28.3823 32.3795C28.3823 34.9859 27.4912 37.1917 25.7091 38.9967C23.9349 40.8018 21.7795 41.7043 19.2427 41.7043C16.5855 41.7043 14.3778 40.7775 12.6197 38.9239C10.8616 37.0702 9.98259 34.8685 9.98259 32.3188C9.98259 30.6108 10.392 29.0405 11.2108 27.6077C12.0297 26.175 13.1536 25.0418 14.5825 24.2081C16.0195 23.3662 17.5649 22.9453 19.2186 22.9453ZM19.1825 26.2722C17.5448 26.2722 16.168 26.8469 15.0522 27.9963C13.9363 29.1457 13.3784 30.6068 13.3784 32.3795C13.3784 34.3545 14.0808 35.9168 15.4857 37.0662C16.5775 37.9647 17.8298 38.4139 19.2427 38.4139C20.8402 38.4139 22.2009 37.8311 23.3248 36.6655C24.4487 35.4999 25.0107 34.0631 25.0107 32.3552C25.0107 30.6553 24.4447 29.2185 23.3128 28.0448C22.1809 26.863 20.8041 26.2722 19.1825 26.2722ZM0 23.3946H3.37168V38.0133H8.2847V41.2551H0V23.3946Z" fill="white"/>
</g>
<defs>
<clipPath id="clip0_320_4884">
<rect width="121" height="96" fill="white"/>
</clipPath>
</defs>
</svg>
